/* XPM */
static char *_072622973734d29d8856d5a37cf3707Utov6Qw8zTeQzZGI[] = {
/* columns rows colors chars-per-pixel */
"64 64 177 2 ",
"   c #030404",
".  c #0B0202",
"X  c #060806",
"o  c #0A0907",
"O  c #040509",
"+  c #08040E",
"@  c #050A0B",
"#  c #09090B",
"$  c #130202",
"%  c #1A0101",
"&  c #100F0E",
"*  c #0E100C",
"=  c #0C0613",
"-  c #050C11",
";  c #0E0E11",
":  c #11081B",
">  c #071014",
",  c #0C1214",
"<  c #0E1418",
"1  c #121215",
"2  c #171916",
"3  c #15161C",
"4  c #1C1718",
"5  c #151A1B",
"6  c #191A1E",
"7  c #230202",
"8  c #2C0202",
"9  c #240A0B",
"0  c #340303",
"q  c #3C0202",
"w  c #241214",
"e  c #3B1A1B",
"r  c #21211F",
"t  c #190C28",
"y  c #161522",
"u  c #181726",
"i  c #171E23",
"p  c #1C1C23",
"a  c #1C1B2C",
"s  c #1E0E31",
"d  c #221037",
"f  c #211F34",
"g  c #26123E",
"h  c #1D2122",
"j  c #1E272C",
"k  c #212225",
"l  c #212129",
"z  c #262A2C",
"x  c #2A2C2C",
"c  c #252433",
"v  c #2B2D33",
"b  c #272539",
"n  c #28273C",
"m  c #2A283F",
"M  c #2D3233",
"N  c #2C363C",
"B  c #323435",
"V  c #323639",
"C  c #353A3C",
"Z  c #3B3E3E",
"A  c #440303",
"S  c #4C0303",
"D  c #550505",
"F  c #5A0404",
"G  c #670607",
"H  c #6C0506",
"J  c #660A09",
"K  c #740505",
"L  c #7E0908",
"P  c #63110F",
"I  c #3D413F",
"U  c #2A1443",
"Y  c #2D1549",
"T  c #31174E",
"R  c #341853",
"E  c #3B1B5E",
"W  c #292740",
"Q  c #2B2944",
"!  c #2E2C4B",
"~  c #302E4C",
"^  c #3B3F40",
"/  c #32304F",
"(  c #312E51",
")  c #353353",
"_  c #383557",
"`  c #39365A",
"'  c #3C395D",
"]  c #3E1D63",
"[  c #421F6A",
"{  c #413E61",
"}  c #462070",
"|  c #4A2276",
" . c #4C237B",
".. c #374142",
"X. c #3D4243",
"o. c #3D4749",
"O. c #3F494C",
"+. c #414544",
"@. c #424847",
"#. c #414749",
"$. c #434A4B",
"%. c #414B50",
"&. c #535A5C",
"*. c #444264",
"=. c #484567",
"-. c #494668",
";. c #4D4B6B",
":. c #535070",
">. c #5A5776",
",. c #5E5C79",
"<. c #64627E",
"1. c #810505",
"2. c #8A0505",
"3. c #870709",
"4. c #8D0808",
"5. c #930505",
"6. c #9A0706",
"7. c #960808",
"8. c #990A0A",
"9. c #8D0E11",
"0. c #A80707",
"q. c #A30809",
"w. c #AD0809",
"e. c #B90707",
"r. c #BF0607",
"t. c #B30A0A",
"y. c #BC0A0B",
"u. c #C50808",
"i. c #C90A0B",
"p. c #D30504",
"a. c #DC0606",
"s. c #D50708",
"d. c #DA0708",
"f. c #D30809",
"g. c #DC0909",
"h. c #E40607",
"j. c #EC0607",
"k. c #E30807",
"l. c #EE0708",
"z. c #E30A0B",
"x. c #E60808",
"c. c #ED090B",
"v. c #F80807",
"b. c #F30709",
"n. c #FB0509",
"m. c #F30A0B",
"M. c #FD0A0B",
"N. c #FD0E11",
"B. c #522684",
"V. c #552788",
"C. c #57288B",
"Z. c #59298D",
"A. c #5B2A92",
"S. c #5E2C97",
"D. c #622D9C",
"F. c #662FA4",
"G. c #6B32AB",
"H. c #7235B7",
"J. c #7536BB",
"K. c #676480",
"L. c #686581",
"P. c #6D6B86",
"I. c #716F89",
"U. c #76748D",
"Y. c #78768E",
"T. c #797790",
"R. c #7C7A92",
"E. c #7D7B93",
"W. c #7F7D94",
"Q. c #7938C2",
"!. c #7B39C6",
"~. c #817F96",
"^. c #813CCF",
"/. c #853DD4",
"(. c #873FD9",
"). c #828197",
"_. c #848299",
/* pixels */
"Q ~ ( ( ( ( ( ( ( ( ( ( ( ( ( ( ~ ~ ~ ~ ( ( ( ( ( ( ( ( ~ ( ( ( ( ( ( ( ( ( ( ( ( ( ~ ~ ~ ~ ( ( ( ( ( ( ( ( ( ( ( ( ( ( ( ( ! n ",
"c b Q m W n n Q n m W n m n W n c p 3 p l c m m m m m m m m m m m m m m m m m m m b l p 6 u l n W W m W m m m m m m m n m m c l ",
"p l k l l l l l l l l l l l l p 3 ;   # + ; 3 p l l l l l l l l l l l l l l l p 3 ; # #   ; 3 k l l l l l l l a l l l l l l k p ",
"p p l l l p p p p p p p p p l l l = U d   # # 3 p p l l l l l l l l l l l l p 3 # #   d U = l l l k p p p 6 p 6 p l l l l l p p ",
"p l l l p p K.E.~.~.E.,.p p l c b Q Q Y A.U   # 1 6 p l l l l l l l l l k 6 1 #   U A.U ! Q n l l p U.E.R.R.Y.~.<.p l l l l p p ",
"p l l p p >.>.Y.U.=.) p p l l p k l n Q + Z.B.+ # 1 p p l l l l l l l l 6 ; + = B.Z.+ W n l l l a k p { ,.U.~.U.:.{ p l l l p p ",
"p l l p ;.>.>.I.,.{ p p l l l p 3 ; ; p l n g J.+ # 3 p l l p p p p l p 1 # + H.g b f p ; ; 3 p l l l p { { <.P.{ -.=.p l l k p ",
"p l p ` _ ' >.E.W.~.p p l l l l p + : # & u ~ U /.; ; 3 3 1 ; # ; 1 6 3 ; ; /.U ~ 6 & ; = # p l l l l k p U.~.R.=.' Q 6 p l l y ",
"p k p ' ) _ ' <.~._._.p p l l l b m t [ g   3 c [ !.; + # # #   o o # = ; ^.] b 4   g [ t n c c l l a k ~.~.~.~.=.Q Q ~ k a k p ",
"k p _ _ _ b a u u =.Y.).p j l l l n m m s D.s k l G. .# # U [ E [ U + o  .G.l p s D.s Q m b l l l l p ~._.~.<.Q n Q Q Q p p k 6 ",
"p p ! n f a u a 3 : 3 ) p l l l p 3 p c ~ : D.[ 6 p (.= g |   Q   | g = (.u 3 } D.: ~ c p 3 p l l l p I.{ u y f f f Q n a p p p ",
"p p ~ _ f a a f p p p p p l l p 3 O   1 p c   B.A.  [ E C.s c n c s Z.E [   S.C.  c p 1   + 6 p l l p Q y y y Q a f f ~ ! p l y ",
"p p u _ ( p p p l l l l l l l l l + R  .d 1 p l S.Z.O /.G.+ 1 # 1   G.^.O Z.D.l 6 1 d  .R O c l l l l w p p y p p a _ { u p p p ",
"p p ~ ( p l l l l p l p p p l c n Q ! W C.H.U p l Q.R Y }   : s :   | Y R Q.l p g H.V.Q ! Q m l l p h a k k l l p p p { a p k 6 ",
"k 6 :.p l l l p p 6 1 ; ; ; 1 3 l n Q Q ) T /.] 3 : (.  l E d s d E l   (.: 6 E (.T ~ Q W m l p 3 ; ; ; ; 3 p l l l p p { p p p ",
"p p :.p l l l p 3 ; X + # # # # , p l n Q _ + J.D.u  .[ d ]   ~   ] d [  .u D.J.# ` ! n l p 3 # # # # # # + & y k l l p :.p p p ",
"p p :.6 l k p : # @             X # 1 p c Q Q O Q.G.+ J.[ s p p k s [ J.+ G.!.  ! ! n p 3 # @ X   x 4 B , * # * 5 p l p :.p p p ",
"p p :.p l p 1 X   * B +.Z C Z z   # # ; p c W Q Q (.V.[ J.  ; + ;   J.} C.(.W Q n b p 3 # # z I Z Z I +.I I # 1 ; 3 p p :.p p 6 ",
"p p :.p p 1 o   2 I I I I +.Z C C Z   . # p l m m = (.: . U F.V.F.g   : (.: m m c w 1 # 2 Z C C Z Z Z Z @.I h X # # 3 p :.p l p ",
"k y :.6 3 #     X 5 X.X.Z Z Z Z Z C Z z # # 3 l b b D.F.l J.:   : J.l D.D.c b l p , o C X.Z X.I Z Z X.I I h @     # 3 3 :.p p p ",
"p p :.6 3     X O @ @ h Z ..I Z ^ +.+.Z Z o ; 3 f c + (.[ G.m ~ W G.] (.# c c p , # Z Z @.I I I Z x X @ @ X O X o k ; 3 :.p p p ",
"p p :.p 3   Z k @ @ O       @ M ^ X.+.+.Z ^ + 1 k b m A.^.| n m n  ./.A.n b l 3 ; X.Z +.X.X.I @   O X @ @ - 5 B C 3 1 1 :.p p 6 ",
"p p :.3 3   o 2 z < @ @ @ X O O X X.+.X.Z X.Z 1 3 l n ~ |   b b b   | ! n c 6 ; Z Z ^ +.I z O   X @ @ @ @ @ C O & o   3 :.p p p ",
"p p :.3 6   X # O 5 @ @ @ @ @ O   O 2 Z X.Z Z Z ; 3 c Q ~ Q b c b ! ~ Q n p 1 C ^ +.^ Z ,     O @ @ O O @ X k @       3 :.p p p ",
"p p :.6 p     X O 5 @ @ @ X @ @ O O   - I I I Z C 1 p b Q n c l l n W n l 3 Z Z I Z X.< O   X @ @ @ - @ @ - i   X     3 :.6 p p ",
"p p :.6 6       O h @ @ @ @ @ @ X @   O 5 Z @.X.Z 6 3 j l l k l l l l l p p X.Z @.X.z @ O X X X @ @ @ @ * X k X       6 :.p p p ",
"p p :.6 p       @ 5 O @ @ @ @ # X   X X @ ^ @.+.Z Z 3 p l l k l l l l p 3 Z Z @.+.#.@       @ # @ @ @ @ @ @ k @       3 :.p p p ",
"p p :.p h   .   X < @ @ @ - @ #     .   . # X.X.+.Z +.3 p l l l l l l p B Z ^ +.X.. % % $ .     @ @ @ @ @ X i         6 :.p p p ",
"p p :.u l       X k X @ @ @ X   . $ % 7 8 8 . X.$.I ^ p p l l l l l k p X.^ X.I < q A q 0 7 $ .   @ @ @ @ @ >       ; l :.p p p ",
"p p :.k l     X O C @ @ @ @   . $ 8 q S F F S M +.X.I I p j l l l l p C Z +.+.X.A K K H F S 8 % .   @ @ @ > O       p p :.p p p ",
"p p :.p c #   #   i > @ @ @   $ 8 S H 3.5.5.2.9 +.X.I X.3 k l l l l p X.X.X.+., 5.w.w.0.7.K S 8 $   @ @ ; C X #   # c p :.p p p ",
"p p :.p c c #   X @ 5 @ @ O $ 8 S K 6.e.u.u.e.5...+.I I v p l l l l p X.X.X.X.J u.f.d.f.r.6.K A 7 . @ @ - 5 X     , c a :.p p p ",
"p 5 :.p c c 5 o @ O C - @ @ % 0 G 7.u.d.z.x.g.u.w X.X.o.^ p l l l p p X.X.o.X.r.z.m.m.b.a.e.4.D 8 $ @ @ z O   o 1 c b p :.p p p ",
"p p :.p l c l 3 # X @ 5 @ @ 7 A L t.s.m.M.M.m.z.4.O.^ o.o.p h l l l v O.X.X.4 g.m.M.M.v.c.p.q.J q o @ @ < O o 2 i c l p :.p p p ",
"p p :.p l c c k 4 @   v - > 7 D 2.y.z.m.M.M.M.l.p.o.X.O.$.p l l l p C $.$.X.P j.M.M.M.M.c.f.q.H 0 @ > ..@ @ 2 h c c l p :.p k p ",
"p p >.p h l b z k 5 @ - N - % D 3.r.x.M.M.M.M.M.h.X.X.$.#.6 k l l p #.#.X.X.8.m.M.M.M.M.c.f.q.H 0 - j @   1 k x n c l p :.p p p ",
"p p { U.p l c n M k *   @ h O A 1.e.g.m.M.M.M.N.c.z X.o.+.v p l h p o.@.@.o.s.M.M.M.M.v.j.u.6.F - 5 @ X o r M n n l p ).;.p p p ",
"p p ( E.p l l b n B r *   X 5 @ H w.f.m.n.M.M.M.m.e @.o.@.v p l a 6 @.O.o.o.x.N.M.M.n.v.g.t.1.@ h X   o r B v n c l 6 Y.Q p p p ",
"p p n E.p l l l v B B r X   X k @ 2.r.g.m.M.N.M.m.9.O.%.o.N p l k p O.O.o.o.l.M.M.M.m.x.u.2.@ x @   o r x C b c l l p ).Q p p p ",
"p p a U.p p l l c n B x r X X X B @ 6.i.z.m.N.M.M.y.o.o.@.&.k l k k $.o.o.C b.M.M.m.z.i.L * M O     k z B m v l l k p E.u p p p ",
"p p a W._.p p l l c W B l 4 X O X r h F i.k.m.n.M.s.X.o.$.&.k l l v %.$.X.x m.m.b.k.r.9 M # O X @ 4 l B Q n l l l p ).W.y p p p ",
"p 6 a >._._.p l l l c n M x 2 X X   @ B 1 6.a.j.m.d.o.X.@.$.l l l M #.+.o.4 j.j.p.H z 2     X # 4 z M n b l l l p ).).U.y p p p ",
"p p a n ~.~.~.p l l l l b v z 2 o @       x 2 e.k.1.Z X.+.o.l l l V +.X.I X p.P C X X     o o 2 h v Q c l l l p p ~._.~ u p p p ",
"p p a a Y._._.E.p l l l l n b i 2   X       X 2 M 8 B +.o.+.l l l V o.+.X.  z O     X     # 2 h Q Q c l l l p p ~._.E.y y p p p ",
"p p a a :._.W._.p p l l l c c W j 1     o         V   +.X.^ l l l v ^ ^ + 3         O O @ , ! ! m c l l l l p ~._._.P.y y p p p ",
"p p a a n ~._._._.p p p l l l c n Q < @             @ @ ^ ^ l l l c ^ o O k         @ ; ~ ! Q c l l l l k p _._._.).! y y p p p ",
"p p a a a T._._._._.~.p p p p l l l n Q u @ #       p   4 c l l l c l   o     O , 3 ! Q n c l l l h p p p _._._._.~.u u y p a p ",
"p p a a a ;._._._._.~.~._.W.p p p p l l n W c ,     z # l l l l l l c b B X   ( ~ Q n c l l l p p p ).~.~._._._._.L.y y y p k 6 ",
"p p a a a b E._._._._._.~._.~._.W.p p p p l c b Q n b b l l l l l l l b W ! Q W b c l l p p p ~.~.~._.~.).~._._._.m y y y p a p ",
"p p a a a a K._._._._._._._._._._.~._.W.p p p p a c c l l l l l l l l l l l c l p p p p ~.~.~._.~.~.~.~.).).)._.Y.y y y u p p p ",
"p p a a a a Q ~.~._._._._._._._._._._._.~.~.~.E.p l j p l l l l l l l l l l p p p T.~.W.~.~._.~.).).~._.)._.W._.` y y u y p h p ",
"p p a a a a y < u ! -.K.T.E._._._._.)._.U.>.' p p l l l l l l l l l l l l l p L.U.W.~.~.~._.~.~.).~._.~.W.Y.L.;.y y y y y p p p ",
"p p a a a y : y y : < : 3 < u Q ' ,.` ~ ) ( p p l l l l l l l l l l l l k l l p *.*.;.L.U.~.W.U.L.=.! a y y y y y y y y y p a p ",
"p p a a y y 3 y < 3 y y : y : 3 y n ( ) ) p p l l l l l l l l k l k l l l l l p p { *.{ { _ y y y y y 3 y y y y y y y y y p h 6 ",
"p p p < 3 3 3 < y 3 3 3 y 3 y 3 3 u ) ) p p l l l p l l l l l l l l l l l l l l h p *.*.{ n 3 y y y y y y y y y y y y 3 y p l p ",
"p p : 3 y : : y 3 : : y < : y < : 3 ~ p p l l p l l l l l k l l l l k l l l l l l a p *.=.u y y y 3 y y y y : y y y y 3 : p p 6 ",
"6 p p p p p p p p 3 3 3 3 p p p p p p p l l l l l l l l l k p 3 3 p p l l l l l l l p p f y y y 3 y y u y y y 3 y y y y p p p 3 ",
"1 3 p l l l l p p < # # 1 p l p l l l p k l l l k l l l p 3 # # # 1 p l l l l l l l l p p p p p p p 1 #   # 1 3 p p p p p p 3 1 ",
"3 ; 3 p l l p p ; @ 3 6 # 1 p p l l p p 3 3 p l l l l p 3 # # 3 3 # ; 6 k l l l k p 3 6 p p l l p 3 # # 3 # # 1 p a k l p 3 # 3 ",
"3 o ; 6 p p 3 ; # 3 3 3 3 # 1 p l p 6 # X # 1 p l p p 3 # # 5 5 3 3 # & 3 p l p 6 # # # 1 p l p 3 ; # 3 3 3 3 # ; p k p 1 # 3 3 ",
"3 3 # ; 6 3 # # 3 6 5 3 3 3 # 1 6 3 # # 4 3 # 1 p p 1 # # 3 3 4 5 3 3 # & 3 p 3 # # 6 3 # 1 3 3 # # 3 3 6 3 3 3 # 1 3 3 ; 3 3 4 ",
"3 6 3 # # # # 5 3 3 3 3 3 3 3 # # # # 3 5 3 3 o # & # 3 3 6 3 3 3 3 5 4 # # # # # 3 3 3 3 # # # + 6 3 3 3 3 6 3 3 # ; # # 3 3 5 ",
"3 6 3 3 # + 3 3 3 5 5 5 3 3 3 3 + # 6 3 3 3 3 3 # # 3 3 3 3 3 6 3 3 3 3 3 # # # 3 6 3 3 3 3 @ # 3 3 3 5 5 3 4 3 3 3 # # 3 3 3 5 ",
"3 3 3 6 3 5 3 6 3 3 4 3 3 3 6 3 5 3 3 3 3 5 3 3 3 3 3 3 3 5 3 3 3 6 3 3 3 3 3 3 3 3 5 6 3 3 5 4 3 3 6 3 3 3 5 3 3 3 3 6 3 5 3 3 "
};
