/* XPM */
static char *_855e5c6159f4239a4dea96cd33a9e5cnYcll1iGT79XbwDS[] = {
/* columns rows colors chars-per-pixel */
"64 64 100 2 ",
"   c gray2",
".  c #0B0B0B",
"X  c #141414",
"o  c #1A1A1A",
"O  c gray14",
"+  c #2C2C2C",
"@  c #2F2F30",
"#  c #2C3233",
"$  c #2B3539",
"%  c #2D3C3D",
"&  c #313131",
"*  c #383737",
"=  c #373837",
"-  c #383837",
";  c #373738",
":  c #353B3B",
">  c #3B3B3B",
",  c #3F403F",
"<  c #333F40",
"1  c #3E3F40",
"2  c #354242",
"3  c #3B4343",
"4  c #3A4748",
"5  c #344C4C",
"6  c #3C4A4A",
"7  c #434343",
"8  c #454545",
"9  c gray28",
"0  c #484847",
"q  c #444B4B",
"w  c #444F4F",
"e  c #4B4A4A",
"r  c #4A4B4A",
"t  c #4A4A4B",
"y  c #4B4B4B",
"u  c #445152",
"i  c #4B5151",
"p  c #4B5353",
"a  c #4B5454",
"s  c #4B5555",
"d  c #4B5656",
"f  c #4B5858",
"g  c #4B5959",
"h  c #4B5B5B",
"j  c #4B5C5C",
"k  c #4B5D5D",
"l  c #4B5E5E",
"z  c #4B5F5F",
"x  c #4B6060",
"c  c #4B6161",
"v  c #4B6262",
"b  c #4B6363",
"n  c #4B6464",
"m  c #4B6565",
"M  c #4B6666",
"N  c #4B6767",
"B  c #4B6969",
"V  c #4B6B6B",
"C  c #4B6C6C",
"Z  c #4B6D6D",
"A  c #4B6E6E",
"S  c #4B6F6F",
"D  c #4B7070",
"F  c #4B7171",
"G  c #4B7272",
"H  c #4B7575",
"J  c #4B7676",
"K  c #4B7878",
"L  c #4B7A7A",
"P  c #4B7B7B",
"I  c #4B7C7C",
"U  c #4B7D7D",
"Y  c #4B7E7E",
"T  c #4B8080",
"R  c #4B8484",
"E  c #4B8787",
"W  c #4B8888",
"Q  c #4B8989",
"!  c #4B8A8A",
"~  c #4B8B8B",
"^  c #4B8D8D",
"/  c #4B9292",
"(  c #4B9393",
")  c #4B9B9B",
"_  c #4B9D9D",
"`  c #4BA4A4",
"'  c #4BA5A5",
"]  c #4BACAC",
"[  c #00CBCB",
"{  c #00CDCD",
"}  c #00CECE",
"|  c #1FC2C2",
" . c #1FC8C8",
".. c #00D4D4",
"X. c #00D5D5",
"o. c #00D9D9",
"O. c #00DCDC",
"+. c #00DDDD",
"@. c #1FDFDF",
"#. c cyan",
/* pixels */
"& & & & & & & @ & @ @ & & + & & @ & @ @ & @ & @ & & & & @ & @ & @ & & & + & & + & @ & @ & @ & + & & @ @ @ & & & & & & @ & & @ & ",
"& + @ @ & o X       & @ @ & & & & & & & & & @ & & + @ & & @ & @ & @ & & & & & & @ @ @ & & & @ & & & @ & & @ X .   . @ @ @ & & @ ",
"& @ @ @ @ @ @ @ & @ & & @ @ @ @ @ @ @ @ @ & @ & @ @ @ @ @ & & @ & & & & & + & & @ @ @ @ @ & @ & @ & & @ & & @ @ & & @ @ & & @ & ",
"& @ @ X X X X X X X X X X X X X X X X X X X X X X X X X X X X X X X X X X X X X X X X X X X X X X X X X X X X X X X X X & & & & ",
"@ & & X o o o o o o o o o o o X o o o X o o X o o o o o o o o o o X o o X X o o o o X o o X o o o o o X o o o X o X X X + & + + ",
"@   @ X o + + + + + + + + + + + + + + + + + + + + + + + + + + @ + + + + + + + + + + + + + + + + + + + & + + + & @ @ O X & + . & ",
"&   & X X + & & & & - - - > - - , > , , , , 8 8 7 8 0 0 8 0 0 r e e e e e e 0 0 r 0 0 8 7 7 8 , > > , > - - - > * + O X @ +   & ",
"@   & X o + - o o o o o o o o o o o o o o o o o o o o o o o o o o o O o o o o o o o o o o o o o o o o o o o o o X + O X & O   & ",
"& X @ X o + > o + + + + + + + + + + + + + + + + + + + + + + + + & + + + + + + + + + + + + + + + + + + + + + + O X + O X @ X   + ",
"& o & X o + - o + & @ & @ & & @ @ @ @ @ @ @ @ & @ @ @ @ @ @ @ @ & & & & @ @ @ @ & @ & @ & @ @ @ @ @ @ & & + & O X + O X *     & ",
"& + & X o + > o + @ @ @ & & @ & # & # & @ @ @ & @ & + @ @ & & # & & & + @ @ + > & & @ & @ & @ @ @ @ & & & & & O X + O X * & & & ",
"& & & X X + , o + & & & & & & & # = & & = = # # # = = - & @ & & & & & & : # # & # # & * # # - & & & & + & & & O X + O X & & + & ",
"& @ @ X o + * o + # & & & i s j b b b m m m b m m m b b h s ; 3 & , h z c n c n n n n n n n c z s a = , & + & O X + O X * + & & ",
"@ @ & X X + > o + & & & r g m G L I T I I I I I I I I G Z c s $ p z n Z P U P P U U P P T T P H B z s + & & & O X + O X - & & & ",
"@ & @ X o + , o + @ & & s b  .#.#.#.#.#.#.#.#.#.#.#.#.#.#.| z 4 h n #.#.#.#.#.#.#.#.#.#.#.#.#.#.#.Z j 7 & & & O X + O X - & & & ",
"& @ & X o + , o + & & & g G #.X.+.o.X.X.X.X.X.........X...#.c : h n X.X.........X.X.....X.o.O.O.} T B # & + & O X + O X > & & + ",
"@ & & X X + , o + @ & = b L #.O.} #.#.#.#.#.#.#.#.#.#.#.#.| z 4 g m #.#.#.#.#.#.#.#.#.#.#.#.#.X.} ! Z 4 & & @ O X + O X , @ & @ ",
"@ & & X o + 7 o + & @ # m L #.o.#.` / T I I I I U U P H Z x s < i j m G L I I I I I I I W ) ] } } ! F > @ & & O X + O X - & @ & ",
"& @ & X X + 7 o + @ @ = n T #.X.#./ I B m m m m n n c c h s > : > s g g b b m b b m m m S E _ [ } ^ F 2 & @ & O X + O X , & & & ",
"@ & & X o & 8 o + @ @ # n I #...#.T B 3 > < : ; 1 : 1 ; > : : > ; : : > > : : > : > : : 6 H ^ [ } ^ G 2 @ & @ O X + O X , & & + ",
"& & & X o + 7 o + & @ # c U #.X.#.I m 3 - > & 7 & 7 & > & > > * > & 1 @ > & ; > & - & > % G ! [ } Q S : # + @ O X + O X > @ & & ",
"& & & X X & 8 o + & @ = n U #.X.#.I n : - ; > @ > @ > ; > ; & > & > & > ; > ; * > ; > ; 6 G ! [ } Q H 6 & & & O X + O X , & & @ ",
"& & & X o + 8 o + & # & n U #...#.I m > & 7 @ r + 9 @ 1 * ; > & 7 + 7 + , @ ; ; @ 7 + > $ H ! [ [ Q Z $ & @ & O X + O X , @ + & ",
"+ & & X X & e o + & & & n U #...#.I m * > & > + > @ > & ; ; & 1 @ > @ 1 & > ; ; > & 1 & 6 Z ! [ [ Q S 6 @ & @ O X + O X 8 & & & ",
"& & + X o + 8 o & & & & n U #...#.I m > ; > @ 9 @ 7 @ > ; * > & 1 @ 7 @ > & & > & 1 + 1 : H ! [ [ ! C , & & & O X + O X 7 @ @ & ",
"& & & X X + e o + & & & n U #.X.#.I m : > & > @ > & > * * ; & > & > & 1 & 1 ; ; > & > & 6 Z ! [ [ ! Z 5 & & + O X + O X 7 & & @ ",
"+ + & X X & e o + & & & c P #...#.L m : ; - ; > & > & > ; ; > & > & > & > & ; > & > & > 2 Z W [ [ E Z 7 + & & O X + O X 8 @ & @ ",
"& & & X o & e o + & & & z F #.X.#.H b : > * - * > * ; > > * > * ; ; ; > ; > ; * * - ; > 2 C T [ } I n - & & & O X + O X 0 & @ & ",
"& + + X o + e O + & & & h C #.X.#.Z g : : * > & * & > * ; * ; * ; * ; ; ; ; ; ; - * * ; 2 c H } [ H b > & + & O X + O X 0 @ & @ ",
"& & & X o + e o + & & & s c | #.| b s : * * & 1 & 7 & > * ; > & , & > & > ; ; * & , + > - z N #.#.m z # & & & O X + O X 0 & @ & ",
"& & & X X + e o + & & & , u z c g s ; ; - & > @ > & > & ; * & > & > & > * * * * > & > # > s 5 n n 5 p , & & & O X + O X 8 & & @ ",
"& + & X o + e o + & + & , # 6 , u : 3 ; ; > & 9 @ 7 & , & ; , & 1 @ 1 @ > & ; * @ 3 + , + , , , 5 , , + & & & O X + O X r & & & ",
"& @ & X o + y o + @ & & & s g g s 4 ; ; > & > + , @ > & ; > & > @ , & 7 & 1 * * , & 1 & 7 : s g j s : 3 @ & & O X + O X e & @ & ",
"@ & @ X o + y o + @ # & s g m B m j 4 > * > & 7 @ 7 & > * ; > & > @ > @ > & * ; & > @ > & s b m B b s # & @ @ O X + O X e @ & @ ",
"& & @ X o + r o + @ & # g m #...#.m s - * & > + > @ 1 * * ; & , & > & 7 & 1 ; ; > & , & q b Z [ [ G j 4 @ & & O X + O X e & & @ ",
"& @ & X X + r o + @ & & j H #.X.#.G b - ; * * > & > & ; * ; ; * > * * & * & * * ; - & ; : B L [ [ L B : & & @ O X + O X e & @ & ",
"@ & @ X o + 8 o + @ @ - b H #.X.#.H b > > & > @ , & > ; > ; * ; * * * > ; 1 & > * ; * * 4 Z R [ [ E Z 2 & + @ O X + O X e @ & @ ",
"& @ & X X + 8 o + @ + - n I #.X.#.I n : * * ; * * * ; * * ; * * & * * ; ; * ; ; ; ; > * 2 Z ! [ [ E G 4 & & & O X + O X 0 @ @ & ",
"& & @ X o + 8 o + & & # n I #.X.#.I n : * > ; > * > ; > ; ; > ; > * > ; > > ; > & 1 & > 2 G ! [ [ E D % & @ @ O X + O X 0 & & & ",
"& + & X o + 8 o + @ & # m I #.X.#.I m : ; & > @ * & > & * ; & > @ > & > & * * & > & 1 & 6 G ! } [ ! D w @ & @ O X + O X 0 @ & @ ",
"& + & X o + 7 o + @ @ # m I #.X.#.L b : > > & 7 - > : > - - > & > & > & > ; ; 1 @ > @ > $ H ! [ } Q F , & + & O X + O X 8 & @ & ",
"& & & X X + 8 o + @ @ - m I #.X.#.I m : ; @ > + > + * & * - @ , @ 1 @ 7 & > - & 1 @ 8 @ u Z ! [ [ Q D 6 & & & O X + O X 8 & & + ",
"& + & X o + > o + @ # * n I #.X.#.I m > ; > & 1 & , > > : ; > & > & > & > & ; > & > @ > : G ! [ [ Q Z , & & & O X + O X 8 @ & & ",
"& & & X o + 7 o + @ @ # n I #...#.I m : - @ > + > + > @ * - & , @ 7 + 7 & > ; & 1 @ 7 @ u G ! [ [ Q Z r & + & O X + O X 7 @ @ & ",
"& & & X o + 7 o + # @ * m T #.X.#.! Z 5 4 4 2 6 2 6 2 3 , : , $ > ; 3 : 4 2 4 4 2 4 2 4 5 I ( [ [ Q F 7 & & & O X + O X 7 @ & @ ",
"# & + X o + > o + # @ & m I #.X.#.) E H G Z G Z Z Z Z Z n h u , : s b m Z Z G Z G Z Z H I / ' [ [ ^ G 2 & & + O X & O X 7 & @ & ",
"& @ & X o + = o + & & & b L #.+.#.] _ ^ ! ! ! ! Q Q R T H n h 2 s b B L E ! E ! ! ! ! ! ( ' @.X.[ Q Z 5 + & & O X + O X , @ & @ ",
"@ & & X o + > o + & & & j H #.o.X.} [ [ [ [ [ } [ } } [ } #.c , j B } [ [ [ [ [ [ [ [ [ [ [ } o.[ R n 3 & & & O X + O X , & @ & ",
"& & @ X X + - o @ & & & s C #.} } [ [ [ [ [ } [ [ [ [ [ } #.j 4 j n [ [ [ } [ [ [ [ [ [ [ [ [ [ } P c q & & + O X + O X , & & & ",
"& @ & X o + - o + @ @ & p z Z U Q ^ ^ Q Q Q ! ! ! ! ! I L Z g 3 s z F U R Q Q Q Q Q Q Q ! ^ ! E P n s # @ & & O X + O X , + & + ",
"& & & X o + * o + @ & & # s z n Z F F Z F G Z G G G G B b 5 % 7 # s c n Z S S F F F Z F G G Z m c f # r & @ @ O X + O X , + & & ",
"+ & & X o + - o + & & @ > - , : 6 , 6 , 7 5 , 5 , 5 , , , , , & 7 # , , 5 , , 6 , 6 , 5 > 6 , , , % , + & @ & O X + O X - & & & ",
"& & & X o + * o + @ & & & @ & @ & @ & & & & & & # # & & + & & & # & & & & & & & # @ @ @ & @ & @ & & & & @ @ & O X + O X - & & & ",
"& & @ X X + * o + & & + @ & @ & & @ @ & & & + & + # @ & & & & & + & & & + & & & # @ @ @ @ & @ & @ & & & @ @ & O X + O X - & + & ",
"&   @ X o + * o + @ & & @ & & @ @ & & @ @ & + & @ @ @ @ & & + & + & & @ & & & & + & & @ & @ @ @ & @ & + @ & @ O X + O X - +   & ",
"&   & X X + & o O O O O O O O O O O O O O O O O O O O O O O O O O O O O O O O O O O O O O O O O O O O O O O O O X + O X - O   & ",
"& . @ X o + + X X X X X X X X X X X X X X X X X X X X X X X X X X X X X X X X X X X X X X X X X X X X X X X X X X + O X = o   @ ",
"& X & X X + + + + + + + + + + + + + + + + + + + + + + + + + + + + + + + + + + + + + + + + + + + + + + + + + + + + + O X & .   & ",
"& & & X o O O O O O O O O O O O O O O O O O O O O O O O O O O O O O O O O O O O O O O O O O O O O O O O O O O O O O O X = & @ & ",
"& & & X X X X X X X X X X X X X X X X X X X X X X X X X X X X X X X X X X X X X X X X X X X X X X X X X X X X X X X X X & @ & @ ",
"& @ & & & - & - - - - - - , , , , , 7 8 7 8 8 8 0 0 0 r 0 r r 0 r 0 0 0 0 0 7 7 , , , , , , - , - - - - - & & & & & & + & @ & + ",
"@ & & & &   X O + + & & & & & + @ & & & & & & & & & & & & & & & & + & & & + & & & & & & + @ & @ & & @ @ & @ . o O + & & @ & & & ",
"@ & @ & @           & + & & @ & & & & & & & & & & @ & @ & + & + & & & & & & & & & & & & & @ & & & @ @ & @ &         & & & & & & ",
"& @ & @ & @ & @ & & @ & @ @ & @ & + & & & + & + & & @ & & & & & & & + & & & & + & + & & + & & & + & @ & & & & & & & & & + & & + "
};
