/* XPM */
static char *_8a5081fadd44808e6bc052187de6c6aTlJBK4QHuFuAfGHj[] = {
/* columns rows colors chars-per-pixel */
"64 64 108 2 ",
"   c #0B0C0F",
".  c #0E0F12",
"X  c #0F1013",
"o  c #121315",
"O  c #151619",
"+  c #181719",
"@  c #17181B",
"#  c #1A1A1C",
"$  c #1C1D22",
"%  c #201F20",
"&  c #1E2025",
"*  c #222226",
"=  c #292626",
"-  c #2A2827",
";  c #242529",
":  c #28272B",
">  c #27292D",
",  c #2C2C2C",
"<  c #302E2F",
"1  c #2F302E",
"2  c #30312F",
"3  c #262934",
"4  c #2D2E31",
"5  c #2A2E3A",
"6  c #312F30",
"7  c #2F3134",
"8  c #2F323A",
"9  c #333333",
"0  c #313236",
"q  c #353334",
"w  c #313434",
"e  c #323436",
"r  c #323536",
"t  c #363435",
"y  c #393637",
"u  c #373936",
"i  c #383A37",
"p  c #303138",
"a  c #323339",
"s  c #333438",
"d  c #323538",
"f  c #33343A",
"g  c #33363A",
"h  c #34353A",
"j  c #33353C",
"k  c #34353C",
"l  c #34363C",
"z  c #393638",
"x  c #3A3739",
"c  c #35393B",
"v  c #34383C",
"b  c #35383C",
"n  c #35393C",
"m  c #373A3D",
"M  c #363A3E",
"N  c #3B383A",
"B  c #3C393B",
"V  c #3D3A3C",
"C  c #3F3C3E",
"Z  c #403D3F",
"A  c #3E403D",
"S  c #40413E",
"D  c #353740",
"F  c #373941",
"G  c #373A40",
"H  c #363A42",
"J  c #3A3A41",
"K  c #3A3C41",
"L  c #3A3C43",
"P  c #3B3F43",
"I  c #3B3E49",
"U  c #3F3E48",
"Y  c #423F41",
"T  c #3E4042",
"R  c #3D4247",
"E  c #3C4148",
"W  c #3E424A",
"Q  c #444342",
"!  c #494B47",
"~  c #43444B",
"^  c #47474D",
"/  c #45444F",
"(  c #46494F",
")  c #4A4C4A",
"_  c #454751",
"`  c #474753",
"'  c #464952",
"]  c #484B51",
"[  c #4A4A52",
"{  c #4A4C53",
"}  c #4A4E54",
"|  c #4B4D58",
" . c #545552",
".. c #515256",
"X. c #585655",
"o. c #505158",
"O. c #52545C",
"+. c #54555C",
"@. c #58575E",
"#. c #56585D",
"$. c #58595D",
"%. c #59595F",
"&. c #5B5C63",
"*. c #595C64",
"=. c #626163",
"-. c #64656B",
";. c #6D6A6E",
":. c #707071",
/* pixels */
"# $ $ # # + + O @ : - - = % % # % % % % $ O $ # + + $ o o o o . o o O O o O $ # @ @ O O O O @ @ o @ O O O # @ O @ * # O # # @ # ",
"4 , 9 N < < 6 9 , 6 : < Z < < < 6 6 6 6 6 6 , 6 , , , 6 , q 6 6 $ % > h 0 4 b 4 j 7 4 7 4 j 8 7 e 7 8 , e 4 4 H 4 4 f 7 H p 4 f ",
"/ < 9 9 < < < x 6 < < < q < t t < : 6 < x 6 6 6 q : 6 6 q < Z < : D I p 7 9 0 4 7 , 4 b 7 8 7 , , 4 f 7 7 7 7 7 p f f 4 H 7 4 f ",
"` < < N y t t < : t < < < : t y < : Z 6 x q 6 6 , : 6 , 6 < q < D Y ` , 7 4 e 7 4 , 7 7 b 7 7 8 7 7 b 4 f f 7 7 4 4 e l c t 4 p ",
"J < 9 < t < < Z : < < t < t t < < 6 < q q 6 < < , = , 6 6 , , < +.$.( e 4 e 8 1 P , 4 0 > 2 7 3 7 b f 7 7 P , e 7 0 e 7 f 8 7 7 ",
": t < 6 < t t t < < < < 6 < Z < q 6 Z 6 6 6 Z x q , < y < 6 Z : } c ; 7 4 , 7 , f 4 8 : 7 ; e 4 e 7 b e 4 0 e t , 4 e 4 f e 1 7 ",
"# < < 9 6 < 6 x < t < < y < Z < < < Z , Z < 6 q 6 6 6 6 , : Z < ] 0 # 7 7 7 7 7 f 7 e e c e 4 H c f 7 7 , e c c 4 4 0 e e e 7 , ",
"# t 9 t t < t < < x < N < 6 y < 6 y 6 6 < 6 y 6 6 , < < 6 < , < .., # 7 7 7 7 4 p f e h c e f c 7 b M 7 7 m 7 e 7 , e h e 7 7 7 ",
"# 6 t y q 6 < t < t < t < < < < , 6 q 6 6 , < < : < 6 q 6 , t 6 +.4 $ , , f 7 4 f 8 e 7 7 7 7 f e f h 7 0 h 0 l 7 , 7 f h , 7 7 ",
"% < t y t t < < < < < 6 q < q q q q Z 6 Z , Z Z < < 6 6 6 x y < $.0 # 4 4 7 f e 4 T f j , 7 , c 7 b c 4 4 h 4 h 7 7 7 e c , 7 , ",
"# < < < < 6 < t < q - 6 x t < < q q Z q 6 , Z , < : < 6 6 t t < ..h # 7 4 0 0 4 7 e 8 e 4 7 , w , h 0 9 4 e 7 0 7 8 , f f 4 7 7 ",
"+ x x t t < < t t t < x t < < t q 6 6 < q 6 < y < < 6 6 6 q < y &.0 # h 4 f f 7 7 c e f 4 , , 7 7 7 c 7 7 7 7 c , , 7 h g , 7 , ",
"O y 6 9 6 t < t < < < t N < < < , , 6 6 6 , 6 q < - < - < < < t $.4 # h 4 4 7 7 8 8 e 7 7 , 7 7 , 8 8 e e 4 e 7 7 7 7 7 7 7 , 7 ",
"+ < N t t t < 6 < t < < < N x < 6 q y x y 6 q 6 < - < t < 6 < q *.p # Q 0 9 4 4 e e 7 e 4 7 , 7 > 7 e w 7 9 7 c e 4 , 9 7 , , , ",
"% t t 9 t 6 < 6 < < < < < Z t < < < y 6 6 6 q y , : < 6 < t q 6 ] L # 4 ; 6 q 4 , , 7 e 7 7 , 7 7 e 7 , , 0 7 7 , 7 , , e , > 7 ",
"O N 6 9 < t < < < < < 6 9 < < < q 6 6 q 6 q q Z - , - 6 : < < < =.Z + + # O o @ o # # @ o $ # # O o @ # # @ @ # # @ + @ * & # @ ",
"+ y q q < < 6 < < 6 < < < N < < < < t < < t t < < < < 6 6 t t < =.y % # + O + + # # # + + O # # @ + # # # @ @ # # # O @ % # # % ",
"+ t N y < < 6 6 < 9 < < t 6 < < < < t < t t < < < 6 - 6 < t < 6 ;.X.: % % , % : = = : * = * * : , & ; > > & ; ; ; = > > : 6 , , ",
"# t t 6 t q 6 6 6 t < N < t < : < < < t < < t t < < < < < 6 6 6 ;.=..., < 6 6 < t 9 6 6 6 6 6 q ~ ~ ( 0 7 9 4 f 9 0 , 0 4 0 6 p ",
"@ 9 6 6 6 9 6 6 < < < t < t < < < t t < < < < q - < < < 6 < 6 6 -.=.:.6 6 6 < < 9 < , 6 4 q < < +.+.] e 4 7 4 h 4 e , 7 4 4 , 4 ",
"+ < < < < 6 < < < < < 6 6 6 t < < < t < t < < < < : < = < < 6 - ;.;.@.6 < Z 6 < < 9 6 < < x 6 6 &.} O.0 4 0 9 0 , 0 4 4 , 4 , , ",
"@ Y 6 6 N t < 6 t < < t < < < < 6 t t t < t < x = q < < < < 6 < @.] , < < t < < t t 6 < 6 q 6 < =.] m 4 , 0 , p , 4 , , 4 4 7 7 ",
"# t 6 6 6 6 , 6 = < < < < < = < < < < < < < < < < < < 6 6 < < q &.0 + 6 < < Z 6 t < t 6 6 q < < } ; O 0 4 p 0 0 4 4 4 4 4 4 , 4 ",
"# t Z < 9 N 6 6 < x < x < < < < < < < x t < y < < < : < q t < < o.9 # < < < Z < < t t < 6 x 6 < W # o s 4 0 4 e 4 7 4 4 4 0 4 4 ",
"+ 6 t < < < < t < t t t < t < t = < < < q q < 6 < < < < - < < < +.B # 9 , q 9 , q 6 t 6 t 6 : < / & o 7 e h 7 e 7 e , 4 4 4 , 7 ",
"+ t < x < < < 6 : t < < < < < < x < t 9 6 q < t < < < - < : < - T ; O , 9 , t < V 6 q 6 6 6 < < R $ O 0 , f 4 c : 7 7 4 e 4 7 7 ",
"O 6 V < 6 N t < t < < Z < < Z t < < < t t t 6 < < t 6 < < < < < R > O t 9 9 9 9 Z 6 t q q y , < Q * O h 7 7 0 7 b 1 7 4 , 4 7 , ",
"O Z , , < x < < t < < < t < < < = t t 6 N 6 t N 6 6 < 6 = t < < ) 9 # e 9 y 9 < B 6 t Y B x 6 6 / ; O c 4 e e f e 7 7 7 7 7 9 7 ",
"+ N N < < < < < < < < t < < < < < < < t Z 6 N N < < < t < t < : J 0 + t < q < 6 x q 6 6 q q x , P ; O f f 7 7 h , 7 7 7 7 7 4 , ",
"# t Z : < < t N t 6 < < < < < < < < < x t Z 6 N < < : < < < < < ] V + 9 6 y B 6 6 , t Z q 9 x 6 J = # 7 7 e 8 H 4 4 7 7 , b 7 7 ",
"O 6 Y < = Z t t t < < < < t < t : = < < 6 N t 6 : < < < - < < : ` ; + 6 6 9 q 9 6 < t t 9 x , 6 J * # p e 8 l h 8 8 7 4 7 e b , ",
"O 6 Z : < 6 < < t < < t t t < t < < < t x q y t < q = < < q = < Y % # < q 6 B t x , B 6 9 q , 6 P * o 7 7 7 j c 7 f , 4 4 8 , , ",
"@ X @ o o o X o X X X X X X X X X X X X X # X # X X X X X & R } ` 4 + , , 9 < 6 < < t < t q x < f * X o o @ O @ o o O X @ @ @ O ",
"o X X X # o o X o o o X X X X X X X X X o X # X X X X X X & A } ` 4 @ : V 0 9 - < < x q < x < Z l * o O o o o o O @ O O o @ @ O ",
"& # o @ & & # # # % # X @ @ # # & @ @ @ @ # X # & & > * @ > ! ! | b + , 6 < 9 6 t : Z x t t < < D 4 $ * # & - * - - ; @ $ & * * ",
"A A A 1 1 ! & A A A A 1 A 1 1 u - A - - A A A 1 : A 1 1 > A - A ' l # 6 t 6 6 9 t < x t < < x < ` / j 4 > ; 1 7 , * 7 7 7 7 , , ",
"E ! ! A A A - 1 - A - A 1 u 1 1 A 1 - A A - A A A A - - 2 A & 1 Y , + < 9 t 6 t < < t t < Z < < ' } ' 8 7 ; : c ; T 7 h f , j 4 ",
"E A A 1 1 A - 1 1 1 1 1 1 1 1 A - > & A * A - 1 ; 1 * A - 2 1 1 I 4 O : 6 6 t < t < < < < t t < -.&.L 8 7 8 7 : b , 8 m , 7 f b ",
"& A A ; 1 A 1 A 1 1 1 1 A 1 u u 1 1 - A A - A A A - 1 - - 2 1 - 8 ; O < t 6 6 B < < t < y x y Z W H ; 7 , , > W 4 8 > > 7 e c f ",
"# 1 A 1 1 1 1 - A A 1 1 1 1 1 1 1 1 1 - - A & 1 1 A - - 1 A 1 1 5 $ o < t 6 < < t x < < Z Z < x H & o g 1 > f M 7 7 4 , , 7 c 7 ",
"X A - 1 A > A - w 1 1 i 1 1 1 1 A 1 1 1 1 A - A A 1 - 2 A A A A H 3 @ 6 6 t 6 6 q V Z t < Z q < j ; o : : l 3 j 4 > 7 , 7 7 8 7 ",
"  A A A A - A - 1 1 1 1 i A 1 A A A A  .! 1 1 A 1 1 7 1 1 2 1 1 ` I % 6 6 6 t x 6 V x 6 Z Z 9 C 4 $ O J 4 4 j P e 7 , 7 8 7 g e ",
"X A - - A > - A 1 1 i 1 1 1 - u - 1 1 > A - - - - A 1 1 A A 1 1 L V = 6 < t q q , x y x < < Z = H $ + 4 4 5 8 g 7 7 2 > M 8 8 7 ",
"@ A > A - & A - w i 1 1 1 1 1 7 1 A A A 1 - A 1 1 1 1 1 - > A - H 4 @ Y Q x 6 6 6 6 6 x Z < < Z H & @ 4 4 D M e m 7 1 f 2 r w 8 ",
"o - 1 1 A 1 1 A 1 1 - 1 1 1 1 A 1 1 2 1 - - 1 - - 1 - - 1 % A - D $ o 9 < < V 6 y x 6 q : 6 x < / % @ f 7 R H M 8 7 M 8 7 7 b 7 ",
"# A A > 1 - A & 1 1 1 - 1 1 1 w 1 > 1 w 1 1 1 1 1 1 1 A - A & > W 3 O 0 B 6 < 6 x 6 6 = < x x x W ; @ f 8 W 8 r 8 c M r 1 c 7 7 ",
"@ A - A A - - 1 - - 1 - 1 - 1 - - - - - - > - 1 * 1 - > - - > A I & o 4 q < , 6 6 6 : x q t 6 : P $ O , > 7 M 7 H 8 1 g e 1 E 8 ",
"@ 1 - A 1 A A A A 1 1 - A A 1 1 w w w A 1 1 - 1 - A - - A 1 > > H $ o , x 9 6 q : t 6 x 6 x 6 Z J $ O f e 7 g 7 M 7 7 - : > > , ",
"@ @ @ @ o @ o @ @ X # X o o o o X X X X   X X o X o o o X @ 1 E C * @ o o o o X o o X X @ & H R 5 $ o j 4 D J p L l 4 H 4 ~ 8 f ",
"@ # o o o X # @ @ # X # o X o o X X X X X X     o o o o X o : E R ; o o o o o o o o X o @ > g H j $ O j l p j p H l 7 0 4 p 7 , ",
"& # @ & @ & > - & & & & * # # & o @ @ # & @ @ @ % & * % & & A ! R > % @ @ # % @ % $ @ $ & 5 7 T 5 # o H 5 H p p L H 4 b 3 7 f 4 ",
"A > A A 1 1 > > 1 1 7 7 E 7 7 c A A 2 w A - > A A - - A > A > 1 - , - - S 2 2 A 9 w 1 u w e - u H $ O J p p l 4 l H l l > 4 7 7 ",
"1 A > A > > > > 7 1 7 7 7 7 E H A w 1 A 1 1 1 1 > - & A & 1 1 1 1 - A 1 2 2 u 2 9 w i 2 2 A 1 A p * # H 4 j 8 4 8 8 8 1 1 7 7 7 ",
"A > A 5 w > 7 > 7 > 7 1 w 1 E e w 1 w A A 1 2 - % A - A - A - A - > , A u 1 2 2 9 1 2 2 u S 1 w 4 $ O j 4 j H l 8 M 1 c 1 f e 8 ",
"> 3 7 > w w w A 7 , 7 , 7 4 _ 7 & A 2 w - - 1 1 A 1 A - - A % - - 1 A 7 2 A 1 A 1 u 9 2 2 u - u 5 O X H 4 p j p 7 b 7 8 7 M e g ",
"7 A > A 5 > > 1 8 7 7 3 , , 7 $ X 1 1 1 1 1 1 - - - - A A & 1 1 - 1 A w A 9 2 2 2 2 A 1 2 A 1 u t @ . 8 3 l j D c H 8 g 1 r w 8 ",
", 1 7 7 1 7 7 7 1 > 1 > 7 7 8 & X 1 A A - 1 1 A A A A - % A 1 - - 2 2 2 A A A A u 2 A 1 A u - A 5 @ o b 3 7 ~ p c W 8 4 e 7 f 7 ",
"7 7 n 7 , 1 7 , , , 7 > > 1 3 &   A 1 1 1 1 1 - 1 1 % 1 1 > A A * A 1 1 A 2 A 1 1 A 2 1 A u 1 u b O . H 7 , : 6 f 8 7 7 e 4 , 7 ",
", , 7 7 7 4 > > 4 > 7 1 1 3 3 & X 2 2 1 1 - 1 A - - A * 1 A A - - 2 A A 1 A A 2 9 1 1 u 2 1 1 1 & $ X 8 4 l p 6 W H f 7 e 7 ; 7 ",
"7 7 8 4 4 4 7 , 4 1 , , , > 5 & X 1 1 1 A 1 - - A 2 - A - 1 A > 1 - 1 1 1 A 2 A 2 2 1 9 2 1 u A 8 & O 8 8 H H 0 7 e ~ 4 0 e e f ",
"> , g 8 > 7 7 1 1 7 1 7 8 1 3 $ X 1 A - 1 - 2 1 - - 1 2 - A - A - % A - 1 A A A 2 i 9 2 w 9 A A H ; # W 5 j 4 H e 7 4 4 e 7 ' f ",
"7 8 7 , 1 8 1 > 1 1 > 8 7 1 3 $ X 1 1 1 1 2 1 - - A 2 2 & A - 1 > A ; A A - 1 1 w u 9 w u i i i 8 O . H j j 8 p b W > b , 7 j e ",
"> 7 , , , 7 8 1 7 > > 1 7 > 3 & X A > A 2 1 - A 1 2 A 1 1 - A - A A - A A A - A 2 2 w 1 i 2 e A c @ X c 8 l 7 H 8 e 7 j , b b P ",
"> > , > 7 1 > > 1 , 7 1 8 > 8 & X - 1 2 w 2 1 A 1 1 w 1 - A * % A - A A - A - 1 u w A A A A i b 7 O X 8 H 4 4 f f f 4 h 4 H p f "
};
