/* XPM */
static char *_61fbb0d350a452ea92026eda8f3476fG5uBbfCeqAMxNwMq[] = {
/* columns rows colors chars-per-pixel */
"64 64 144 2 ",
"   c #010000",
".  c #0B0000",
"X  c #0E0A01",
"o  c #130000",
"O  c #1B0000",
"+  c #120D02",
"@  c #1D0A02",
"#  c #161101",
"$  c #1C1501",
"%  c #1E1800",
"&  c #230000",
"*  c #2B0000",
"=  c #2A0902",
"-  c #330000",
";  c #3B0000",
":  c #350A02",
">  c #3B0A01",
",  c #211603",
"<  c #2D1502",
"1  c #231A02",
"2  c #291C05",
"3  c #311404",
"4  c #3B1600",
"5  c #321D05",
"6  c #391D05",
"7  c #351C16",
"8  c #272000",
"9  c #2B2300",
"0  c #322404",
"q  c #3C2406",
"w  c #342A00",
"e  c #3B2B04",
"r  c #3C3100",
"t  c #430000",
"y  c #4B0000",
"u  c #420D02",
"i  c #4A0801",
"p  c #530000",
"a  c #5B0000",
"s  c #471704",
"d  c #5C1704",
"f  c #5F1D05",
"g  c #630000",
"h  c #6B0000",
"j  c #730000",
"k  c #7C0000",
"l  c #621804",
"z  c #432A07",
"x  c #433600",
"c  c #4E3600",
"v  c #463900",
"b  c #4C3E00",
"n  c #453008",
"m  c #4D3409",
"M  c #533600",
"N  c #5B3600",
"B  c #503709",
"V  c #553A0A",
"C  c #5C3F0A",
"Z  c #603600",
"A  c #6A3C0A",
"S  c #743302",
"D  c #7C3208",
"F  c #4F4000",
"G  c #534300",
"H  c #5C4B00",
"J  c #63450B",
"K  c #6C4A0C",
"L  c #76430B",
"P  c #724E0D",
"I  c #665300",
"U  c #6A5600",
"Y  c #6C5800",
"T  c #705B00",
"R  c #76510D",
"E  c #7B550E",
"W  c #7F580E",
"Q  c #776100",
"!  c #7A6300",
"~  c #840000",
"^  c #8B0000",
"/  c #870B00",
"(  c #940000",
")  c #9C0000",
"_  c #851E05",
"`  c #891904",
"'  c #A30000",
"]  c #AB0000",
"[  c #B40000",
"{  c #BC0000",
"}  c #803608",
"|  c #823A09",
" . c #C40000",
".. c #CC0000",
"X. c #D40000",
"o. c #DA0000",
"O. c #E20000",
"+. c #EC0303",
"@. c #F30000",
"#. c #FD0000",
"$. c #F50808",
"%. c #FC0808",
"&. c #81590E",
"*. c #835B0F",
"=. c #845B0F",
"-. c #855C0F",
";. c #865D0F",
":. c #875D0F",
">. c #895F0F",
",. c #826A00",
"<. c #846B00",
"1. c #8A600F",
"2. c #8B600F",
"3. c #9A6001",
"4. c #8E7300",
"5. c #907500",
"6. c #957900",
"7. c #997C00",
"8. c #9A7D00",
"9. c #8C6110",
"0. c #8D6210",
"q. c #8E6210",
"w. c #8F6410",
"e. c #906410",
"r. c #916410",
"t. c #BC6E00",
"y. c #B67C00",
"u. c #A68300",
"i. c #A28400",
"p. c #AC8C00",
"a. c #B88300",
"s. c #BD8700",
"d. c #B19000",
"f. c #B39100",
"g. c #B59200",
"h. c #B99600",
"j. c #BD9900",
"k. c #BE9A00",
"l. c #C19900",
"z. c #C29D00",
"x. c #C29E00",
"c. c #C49F00",
"v. c #C5A000",
"b. c #C7A200",
/* pixels */
"* & & O & O & & O & & O & & O & * & & * & * * * * * * - - * - * - * - * * * * * * & & * & & & & O & O & & O & & O & & O & & O   ",
"o                                 . . . . . o o o o o o o o o O O o o o o o o o o . . . . .                                     ",
"o                           .   . . . o o o o o o O O O O O O O O O O O o O o o o o o . . . . .                                 ",
"o                       . . . . . o o o O O O O O & O * & & & & * O * O & & O O O o o o . . . . . .                             ",
"o                       . . . o o o O O & O & & * * * * * * * * * * * * * & & & & O O O O o o . . .                             ",
"o                   . . . o o o O O O & & & * * * * * - * * - - - - * * * * * * & & & O O O o o . . . . .                       ",
"o                 . . . o o O O O & * * * * * - * - - - ; ; - ; - ; ; - - - * * * * * & & O O o o o . . .                       ",
".               . . o o o O O O & & * * * - - ; ; ; t ; t ; * O - ; t ; ; ; ; - - - * * & & & O O o o o .   .                   ",
"o             . . o o o O O * & * * * - ; ; ; t t t y t - o 5 0.6 * ; t t t ; ; ; ; - - * * & & O O O o . . . .                 ",
"o           . . o o O O & & * * - - ; ; ; t t y y y * o z ;.E W E 9.z O t y y t t ; ; ; - * * * & & O o o . . . .               ",
"o         . . o o O O O * * * - - ; ; t t y y y p t o w.R &.E J E &.0.P t y y y y t t ; ; ; - * * & & O O o o . .               ",
"o       . . o o O O O * * * - - ; t t y y p y * o q 0.w.;.W W P &.>.0.;.w.q O y p y y t ; ; ; ; * * & & O O o o . .             ",
"o     . . . o o O O * * * - - t t t y p a t o 0.P R W 0.w.w.# j.+ e.;.0.&.R e.> * y p y t t ; ; ; * * & & O o o . . .           ",
".   .   o o o O & & * - - ; t t y y a y t 3 9.;.0.K W ;.m U 0 0 0 u.J ;.E &.e.K 0.s y p y y t t ; - - * & & O o o . . .         ",
"o   . . . o O O & * * ; ; t t y y a ; o z P 0.0.0.E 0.,.0 . $ 0 $ X 9 <.e.0.E e.0.P m * y p y t ; ; - * * & & O o . . .         ",
"o . . . o O O & * * - ; ; t y y * O < w.R K &.0.W b.    Y 1 1 0 1 1 U   b U e.e.&.R E 0.s o ; y y ; ; ; * * & O O o . . .       ",
"O . . o o O O * * - ; ; y y y ; V =.K 0.-.K E J f.  X $ # j.a.y.s.b.# . X   f.J R E &.0.K =.V y y t t ; - * * O O o o . .       ",
"o . o o O & & * - ; ; t t O 7 V e.&.R E w.C f.1   $   % + i ( ( ( i   0 $ 9 # , l.*.*.&.R =.e.C o * t ; - * * * & O o o .       ",
"O . o o O & * * - ; ; O o 0.P R E e.e.0.F 7.0 + X G   a a y y y t y p u 9 ! $ X Y p.b 0.e.e.E E P w.* - ; - * * & O o o .       ",
"O o o O O * * - ; ; O 1.W =.>.K R &.X H + H j.w 2 < ; ; ; t y y y t ; - ; = 1 4.j.+ + <.B =.W K &.9.;.E ; ; - * * O O o o . .   ",
"O o o O & * * - ; t & X 1.R =.R 0.b.  + X % H z.; - ; a j ~ ( ( ( ~ h a t ; ; b.1 % # b $ b.e.K ;.=.w.$ a ; - - * & O O o . .   ",
"& o O & * * - ; t t * F G n 0.E b.U 9   x % ; - ; a j ( [  .X.o... .[ ( j p ; - ; $ I   # U b.&.w.K 8 G a ; ; - * * O o o . .   ",
"& o O O * * - ; t y * G G G r j.b.b.,.+ > t - t g ^ ] ..X.O.O.O.O.o.X. .] ^ g t - t = , ,.b.b.j.e G G G g t ; - * * & O o o .   ",
"& O O & * - ; ; t y * G G G G f.j.b.b.t.p - t h ( [ ..X.X...........X.X...{ ) h y ; y t.b.b.h.g.G G G G g t t ; * * * O o o o   ",
"* o & * * - ; t y p * G G G 9 Q Q Q 3.j ; t h ) { X. . .[ ] ' ) ' ] [ { .... .' j i ; h 3.! Q Q 9 G G G h y t ; - * * O o o . . ",
"& O O & * - ; y y p * G G G % G G G N y t h )  . . .{ ' ( ~ ~ k k ~ ( ) [  .X. .] h t y N G G G % G G G h y t ; ; * * O O o o   ",
"* O & * * ; ; y y a * G G G $ G G G N ; p ( X.O.X.{ ' ~ j h g g g h j ~ )  .o.O.o.' a ; M G G G $ G G G h y t t - * * & O o o   ",
"* O & * - ; t t y a * G G G % G G G M ; h [ @.#.O.[ ( k g a a a a a g k ( { O.%.@.{ h ; M G G G % G G G h p y ; ; - * & O O o   ",
"* O & * * ; t y p a * G G G $ G G G c ; j  .@.$.o.] ~ h g a p p p a a h ~ ] X.$.@. .~ t c G G G $ G G G h p y t ; - * & & O o   ",
"* O * * - ; t y p a * G G G $ G G G c t k { X.o. .' / j g a a a a a g h ~ '  .X.X.{ ~ y c G G G % F G G j y y t ; - * & O O o   ",
"* O * * - ; t p a a * G G G % G G G M y ~ { .. .[ ^ j g g a a a a a g g h ~ ]  ... .^ p c F G G % G G G h a y t ; - * * & O o . ",
"& O * * - ; t y p a - G G G % G G G c a (  .o.{ ) k g a p y p y y p p a g k ( { X.X.) a c G G F % G G G j a y t ; - * * O O o   ",
"* O * * ; t t y a g - G G G % G G G M a ' +.%.O.] ^ h a y y y y y y y a h ^ ] o.%.$.] g m G G G % G G G j a y t ; - * * O O o . ",
"* & & * - ; t y p a * G G F % G G G c t / ..@.@...' ~ h a p p p y a a g ~ )  .$.@.o.( y c G G G % G G G h p y t ; - * & & o o   ",
"* O & - - ; t y p a * G G G % F G G m ; h '  .X.{ ' ~ j h g g a g g h j k ) [ X.X.[ k ; c G G G % G G G j a y t ; - - * & o o   ",
"* & & * - ; t y a a * G G G % G G G M - a (  .X. .] ( k h h g g g g h k ^ '  ... .) g ; M G G G % G G G h p y t ; - * * O O o . ",
"& O & * - ; t y y a * G G G % G G G M - t k [ .. .{ ) ~ j h g g g h j ~ ) [  ...[ ~ y - M G G G $ F G G h p y t ; - * & & o o   ",
"& & & * * ; ; y p a * G G G % G G G N t ; g (  .o.X.{ ] ( ~ k k k ~ ( ' { X.o...' g ; t N G G G % G G G h y y t - * * * O O o . ",
"& O & * - ; ; t y a * G G G X 9 9 9 4 g ; t j ] X.O.O... .[ ' ' ' [ {  .o.O.X.[ k y ; a 4 9 9 2 X G G G h y y ; ; - * O O o .   ",
"* O & & * ; ; t y p * G G G   $ , m K ` a ; y ~ [ o.@.@.+.O.o.o.o.O.+.@.$.O.{ ^ a ; y _ J m , $   G G G h i t ; - * * & O o o . ",
"& O O & * ; ; ; y p * G G G w e J J 0.W D a ; y j '  .O.@.@.@.@.@.@.@.+.X.] k a ; y | E 0.J J 0 6.U G G g y t ; - * & O O o o   ",
"& o O & * - ; t t y * G ! b.9 j.J e.;.E 0.&.l ; t a ~ ) {  .X.X.X. .{ ' ~ g y ; d &.e.P W e.V j.Q 6.b.G g t t ; - * * O o o .   ",
"& o O & & * - ; t y - z.h.# 1 # j.W &.&.;.P 9.;.; ; t a h k ~ ^ ~ k h a t ; ; 1.E P -.0.P R 6.0 . p.Q p.h t ; - * * O O o o .   ",
"& o O & & * - ; t y t b.w $ + . X $ 9 w.E &.>.E &.A ; - ; ; t t y ; ; ; ; L &.0.9.P W e.T w 0 $ 8 X 7.z.h t - - * * O O o o .   ",
"O o O O & * * ; ; t y g k +   X X U I ! , 0.=.E e.e.&.a y t ; - ; ; y f 1.0.0.W 9.9.$ ! U U $ 9 % + ~ g y ; - - * & O o o .     ",
"O o o O & & * - ; t t p a g a @ Y j.X X b z.z e.e.;.E K W D j j j D E K R 1.e.w.0 ,.X + X j.Y $ ~ h p y t ; - * * & O o o . .   ",
"O . o o O & & - - ; t y y a a h h.w 2 b $ 2 $ b.0.*.P K w.E L S L E w.P K &.&.z.$     9 2 w g.j a p t t ; - * * O O O o o .     ",
"O . . o O & & * - - ; t y y a a h ^ a b + 2   r b.E P ;.0.>.0.J 1.1.0.1.E 9 Y X . # X 9 g ( ~ a y y t ; - * * * & O o . .       ",
"o . . . o O * * * - ; ; t y a a a g h ~ < $ r 5.H + H X 0.*.P J K &.0.  H r H 1 # $ = ^ j a a y y t t ; ; * & & O o o . . .     ",
"o . . o o O O & * * - ; t t y y a a g g j k h.T w 2 + X 4.0.J J J w.p.X + # H 7.f.( j g a a p y t t ; - * * & & O o . .         ",
"o   . . o o O & & * * - ; t t y p p a a g h j H + $   v I <.x R v 6.# w . $ ,./ ^ h a a a y y y ; ; - * * & & O o o . .         ",
"o   . . . o o O O * * * - ; ; t y y p a a g g j ^ : w <.9 X   +   1 v 1 9 > ^ k g a a a y y t ; ; - - * & O O o o . . .         ",
".     . . . o o O & & * * - ; t t t y p p a a a g h a 7.+   X 2 #   G i.^ j g a a p p y t t t ; ; * * & & O O o . . .           ",
"o         . o o O O O * * * - - ; t t y y y a a a a g ~ = # X 1   # : ^ j a a p p y y t t ; - - * * & O O O o . . .             ",
"o         . . . o o O & * * - - - ; ; t t y y p p p a a a h u T i ^ h a a p p y y t t ; ; - - * * & & O O o . . .               ",
"o         . . . o o o O O & * * - - ; ; ; t t y y y y y p p a j h p y y y y t t t ; ; ; - - * * & & O O o o . . .               ",
"o             . . o o O O O & * * * * - ; ; ; t t t t y y t t y t y t t t t t ; ; ; - - * * * O O O o o o . .                   ",
"o               . . . o o O O O & & * * - - - - ; ; ; ; ; t t t ; t t t ; ; ; - - * * * * & & O O o o o . .                     ",
"o                 . . o o o O O O * & * * * * * - - - ; ; ; ; - ; ; - - - - - * * * * * O O O O o o . . .                       ",
"o                     . . o o o o O O & & * * * * - * - * - * - - * - * * * * * & * O O O O o o o . . .                         ",
"o                         . . o o o O O O O & & * * * * * * * * * * * * * * & & O O O o o o o . . .                             ",
".                         . . . . o o o O O O O O O & O O * & & & O & & O O O O O O O o o . . . .                               ",
"o                             . . . o o o o o O O O o O O O O O O O O O O O o o o o o o . .   .                                 ",
"                                              .       . .   .   .     .     .                                                   "
};
